<svg height="682pt" viewBox="-111 -21 682 682.66669" width="682pt" xmlns="http://www.w3.org/2000/svg"><path d="m451.78125 545.882812-49.84375-95.589843v-157.527344c0-63.332031-33.664062-121.597656-88.1875-153.367187 5.535156-12.34375 8.640625-26 8.640625-40.378907 0-54.601562-44.417969-99.019531-99.019531-99.019531-54.597656 0-99.023438 44.417969-99.023438 99.019531 0 14.792969 3.289063 28.828125 9.128906 41.445313l-.933593.570312c-25.582031 15.542969-46.992188 37.464844-61.90625 63.402344-15.382813 26.753906-23.519531 57.296875-23.519531 88.328125v157.527344l-49.84375 95.589843c-9.085938 17.433594 4.039062 38.925782 23.605468 38.925782h133.65625c5.511719 31.316406 32.894532 55.191406 65.765625 55.191406 32.871094 0 60.253907-23.875 65.765625-55.191406h142.109375c19.546875 0 32.707031-21.46875 23.605469-38.925782zm-228.410156-520.835937c40.789062 0 73.972656 33.1875 73.972656 73.972656 0 40.785157-33.183594 73.96875-73.972656 73.96875-40.789063 0-73.972656-33.183593-73.972656-73.96875.003906-40.785156 33.1875-73.972656 73.972656-73.972656zm-3.070313 589.90625c-18.992187 0-35.054687-12.757813-40.09375-30.144531h80.1875c-5.042969 17.386718-21.097656 30.144531-40.09375 30.144531zm209.21875-55.949219c-.457031.757813-1.097656.757813-1.34375.757813h-407.296875c-1.324218-.246094-1.789062-1.007813-1.394531-2.296875l47.753906-91.582032h26.753907c16.078124 0 16.105468-25.046874 0-25.046874h-21.820313v-148.070313c0-26.65625 6.976563-52.882813 20.179687-75.84375 12.816407-22.28125 31.210938-41.121094 53.234376-54.5l1.191406-.726563c18.171875 22.167969 45.753906 36.34375 76.59375 36.34375 31.25 0 59.148437-14.566406 77.304687-37.253906 47.105469 27.226563 76.210938 77.414063 76.210938 131.980469v148.070313h-183.015625c-16.078125 0-16.105469 25.046874 0 25.046874h187.949218l47.75 91.582032c.109376.214844.410157.785156-.050781 1.539062zm0 0"/><path d="m144.394531 440.835938c-6.8125 0-12.511719 5.71875-12.511719 12.523437s5.703126 12.519531 12.511719 12.523437c6.609375 0 12.21875-5.390624 12.511719-11.976562.3125-7.007812-5.492188-13.070312-12.511719-13.070312zm0 0"/></svg>