<svg height="682pt" viewBox="-21 -112 682.66669 682" width="682pt" xmlns="http://www.w3.org/2000/svg"><path d="m640 93.332031c0-54.632812-44.449219-99.082031-99.082031-99.082031-50.386719 0-92.074219 37.8125-98.257813 86.546875h-430.125c-6.816406 0-12.535156 5.730469-12.535156 12.535156v346.191407c0 6.828124 5.710938 12.53125 12.535156 12.53125h66.957032c16.089843 0 16.113281-25.066407 0-25.066407h-37.132813l146.527344-149.542969 73.75 69.773438c9.535156 9.027344 24.910156 9.023438 34.453125 0l73.746094-69.773438 146.527343 149.542969h-335.738281c-16.085938 0-16.113281 25.066407 0 25.066407h365.5625c6.820312 0 12.53125-5.703126 12.53125-12.53125v-248.925782c45.671875-8.808594 80.28125-49.0625 80.28125-97.265625zm-614.9375 315.492188v-286.378907l145.617188 137.773438zm254.796875-79.808594-235.851563-223.152344h398.652344c2.347656 18.503907 9.808594 35.429688 20.933594 49.308594zm201.738281-156.375c14.984375 11.234375 33.242188 18.308594 53.054688 19.554687v216.628907l-145.613282-148.605469zm59.324219-5.292969c-40.8125 0-74.015625-33.203125-74.015625-74.015625 0-40.816406 33.203125-74.019531 74.015625-74.019531s74.015625 33.203125 74.015625 74.019531c0 40.8125-33.203125 74.015625-74.015625 74.015625zm0 0"/><path d="m130.238281 426.984375c-3.292969 0-6.527343 1.34375-8.855469 3.671875-2.335937 2.335938-3.671874 5.566406-3.671874 8.863281 0 3.304688 1.335937 6.527344 3.671874 8.855469 2.328126 2.34375 5.5625 3.671875 8.855469 3.671875 3.3125 0 6.527344-1.328125 8.863281-3.671875 2.34375-2.328125 3.671876-5.550781 3.671876-8.855469 0-3.296875-1.328126-6.527343-3.671876-8.863281-2.335937-2.328125-5.550781-3.671875-8.863281-3.671875zm0 0"/></svg>