<svg height="682pt" viewBox="-21 -131 682.66535 682" width="682pt" xmlns="http://www.w3.org/2000/svg"><path d="m616.921875 199.515625c-12.597656-15.488281-29.515625-27.023437-48.355469-33.128906-2.664062-31.867188-16.46875-61.453125-39.441406-84.148438-25.277344-24.972656-58.773438-38.726562-94.316406-38.726562-18.394532 0-36.65625 3.804687-53.433594 11.074219-28.289062-38.765626-72.859375-61.585938-121.332031-61.585938-76.65625 0-140.09375 57.046875-149.199219 131.871094-62.035156 5.476562-110.84375 57.722656-110.84375 121.15625 0 50.320312 47.613281 89.960937 95.847656 89.960937l31.421875-.007812c16.117188-.003907 16.167969-25.125-.003906-25.125l-31.421875.007812c-34.53125 0-70.722656-28.25-70.722656-64.835937 0-53.214844 43.296875-96.511719 96.507812-96.511719l-.03125.007813c.246094.003906.492188.011718.746094.011718 6.742188.019532 12.328125-5.242187 12.636719-11.988281 3.042969-66.964844 57.976562-119.425781 125.0625-119.425781 43.535156 0 83.296875 22.113281 106.351562 59.152344 3.511719 5.628906 10.792969 7.5625 16.636719 4.414062 15.800781-8.542969 33.707031-13.046875 51.78125-13.046875 28.886719 0 56.109375 11.175781 76.660156 31.472656 20.527344 20.273438 32.046875 47.324219 32.4375 76.160157.078125 5.832031 4.160156 10.835937 9.851563 12.097656 35.410156 7.816406 61.113281 39.84375 61.113281 76.152344 0 8.363281-1.21875 14.890624-3.988281 20.609374-12.15625-41.109374-50.238281-71.195312-95.238281-71.195312-53.933594 0-97.933594 43.222656-99.253907 96.847656l-186.75.046875c-16.171875.003907-16.09375 24.476563.003907 25.121094l189.324218-.042969c10.285156 43.875 49.714844 76.652344 96.675782 76.652344 52.808593 0 96.097656-41.425781 99.128906-93.480469 3.074218-2.460937 5.945312-5.15625 8.5625-8.054687 11.367187-12.589844 16.660156-27.363282 16.660156-46.5 0-23.628906-8.195312-46.714844-23.078125-65.011719zm-101.273437 187.925781c-40.90625 0-74.1875-33.285156-74.1875-74.195312 0-40.90625 33.28125-74.1875 74.1875-74.1875 40.914062 0 74.195312 33.28125 74.195312 74.1875 0 40.910156-33.28125 74.195312-74.195312 74.195312zm0 0"/><path d="m278.476562 294.640625h65.609376c6.933593 0 12.558593-5.625 12.558593-12.566406v-95.46875h18.078125c10.03125 0 16.125-12.039063 10.023438-20.125l-54.9375-72.808594c-8.652344-11.457031-28.773438-11.691406-37.695313-.449219l-57.878906 73.019532c-6.320313 7.96875-.425781 20.363281 9.84375 20.363281h21.839844v95.476562c0 6.933594 5.621093 12.558594 12.558593 12.558594zm32.285157-184.503906 38.738281 51.347656c-8.382812-.53125-17.976562 2.347656-17.976562 12.5625v95.46875h-40.484376v-95.46875c0-11.722656-12.039062-12.992187-20.976562-12.5625zm0 0"/><path d="m178.769531 310.785156c-6.722656 0-12.453125 5.621094-12.539062 12.34375-.09375 6.972656 5.613281 12.734375 12.566406 12.742188 6.933594.007812 12.667969-5.890625 12.519531-12.824219-.136718-6.675781-5.882812-12.261719-12.546875-12.261719zm0 0"/></svg>