<?xml version="1.0" encoding="utf-8"?>
<svg xmlns="http://www.w3.org/2000/svg" xmlns:xlink="http://www.w3.org/1999/xlink" style="margin: auto; background: rgb(255, 255, 255) none repeat scroll 0% 0%; display: block; shape-rendering: auto;" width="682pt" height="682pt" viewBox="0 0 100 100" preserveAspectRatio="xMidYMid">
<g transform="rotate(0 50 50)">
  <rect x="47" y="24.5" rx="3" ry="6.5" width="6" height="13" fill="#ffffff">
    <animate attributeName="opacity" values="1;0" keyTimes="0;1" dur="0.8474576271186439s" begin="-0.7704160246533126s" repeatCount="indefinite"></animate>
  </rect>
</g><g transform="rotate(32.72727272727273 50 50)">
  <rect x="47" y="24.5" rx="3" ry="6.5" width="6" height="13" fill="#ffffff">
    <animate attributeName="opacity" values="1;0" keyTimes="0;1" dur="0.8474576271186439s" begin="-0.6933744221879814s" repeatCount="indefinite"></animate>
  </rect>
</g><g transform="rotate(65.45454545454545 50 50)">
  <rect x="47" y="24.5" rx="3" ry="6.5" width="6" height="13" fill="#ffffff">
    <animate attributeName="opacity" values="1;0" keyTimes="0;1" dur="0.8474576271186439s" begin="-0.6163328197226501s" repeatCount="indefinite"></animate>
  </rect>
</g><g transform="rotate(98.18181818181819 50 50)">
  <rect x="47" y="24.5" rx="3" ry="6.5" width="6" height="13" fill="#ffffff">
    <animate attributeName="opacity" values="1;0" keyTimes="0;1" dur="0.8474576271186439s" begin="-0.5392912172573189s" repeatCount="indefinite"></animate>
  </rect>
</g><g transform="rotate(130.9090909090909 50 50)">
  <rect x="47" y="24.5" rx="3" ry="6.5" width="6" height="13" fill="#ffffff">
    <animate attributeName="opacity" values="1;0" keyTimes="0;1" dur="0.8474576271186439s" begin="-0.4622496147919876s" repeatCount="indefinite"></animate>
  </rect>
</g><g transform="rotate(163.63636363636363 50 50)">
  <rect x="47" y="24.5" rx="3" ry="6.5" width="6" height="13" fill="#ffffff">
    <animate attributeName="opacity" values="1;0" keyTimes="0;1" dur="0.8474576271186439s" begin="-0.3852080123266563s" repeatCount="indefinite"></animate>
  </rect>
</g><g transform="rotate(196.36363636363637 50 50)">
  <rect x="47" y="24.5" rx="3" ry="6.5" width="6" height="13" fill="#ffffff">
    <animate attributeName="opacity" values="1;0" keyTimes="0;1" dur="0.8474576271186439s" begin="-0.30816640986132504s" repeatCount="indefinite"></animate>
  </rect>
</g><g transform="rotate(229.0909090909091 50 50)">
  <rect x="47" y="24.5" rx="3" ry="6.5" width="6" height="13" fill="#ffffff">
    <animate attributeName="opacity" values="1;0" keyTimes="0;1" dur="0.8474576271186439s" begin="-0.2311248073959938s" repeatCount="indefinite"></animate>
  </rect>
</g><g transform="rotate(261.8181818181818 50 50)">
  <rect x="47" y="24.5" rx="3" ry="6.5" width="6" height="13" fill="#ffffff">
    <animate attributeName="opacity" values="1;0" keyTimes="0;1" dur="0.8474576271186439s" begin="-0.15408320493066252s" repeatCount="indefinite"></animate>
  </rect>
</g><g transform="rotate(294.54545454545456 50 50)">
  <rect x="47" y="24.5" rx="3" ry="6.5" width="6" height="13" fill="#ffffff">
    <animate attributeName="opacity" values="1;0" keyTimes="0;1" dur="0.8474576271186439s" begin="-0.07704160246533126s" repeatCount="indefinite"></animate>
  </rect>
</g><g transform="rotate(327.27272727272725 50 50)">
  <rect x="47" y="24.5" rx="3" ry="6.5" width="6" height="13" fill="#ffffff">
    <animate attributeName="opacity" values="1;0" keyTimes="0;1" dur="0.8474576271186439s" begin="0s" repeatCount="indefinite"></animate>
  </rect>
</g>
<!-- [ldio] generated by https://loading.io/ --></svg>