<svg height="682pt" viewBox="-21 -57 682.66533 682" width="682pt" xmlns="http://www.w3.org/2000/svg"><path d="m612.257812 220.03125h-158.675781v-20.578125c51.371094-4.683594 91.757813-47.976563 91.757813-100.550781 0-55.683594-45.300782-100.988282-100.988282-100.988282-51.082031 0-93.394531 38.132813-100.050781 87.414063h-187c-16.402343 0-16.425781 25.546875 0 25.546875h186.800781c5.300782 44.671875 39.863282 80.488281 83.933594 87.679688v21.476562h-212.601562c-15.296875 0-27.738282 12.445312-27.738282 27.738281v109.441407h-35.8125c-12.140624 0-21.957031 20.207031-28.441406 28.542968-2.839844 3.65625-11.335937 19.421875-16.785156 19.808594-5.097656.359375-12.453125-15.402344-14.949219-19.085938-5.578125-8.253906-14.363281-29.265624-26.582031-29.265624h-37.386719c-1.207031 0-2.191406-.984376-2.191406-2.195313v-241.945313c0-1.210937.984375-2.195312 2.191406-2.195312h26.734375c16.402344 0 16.425782-25.546875 0-25.546875h-26.730468c-15.296876 0-27.742188 12.445313-27.742188 27.742187v241.945313c0 15.296875 12.445312 27.742187 27.742188 27.742187h30.605468s24.996094 36.933594 25.015625 36.96875c10.382813 15.34375 33.519531 16.089844 44.878907 1.480469l29.890624-38.449219h29.5625v106.957032c0 15.300781 12.445313 27.746094 27.742188 27.746094h266.433594s29.871094 38.425781 29.890625 38.445312c11.386719 14.648438 34.488281 13.875 44.878906-1.476562l25.007813-36.96875h30.609374c15.300782 0 27.742188-12.445313 27.742188-27.746094v-241.941406c0-15.296876-12.441406-27.742188-27.742188-27.742188zm-243.347656-121.128906c0-41.597656 33.84375-75.441406 75.445313-75.441406 41.597656 0 75.4375 33.84375 75.4375 75.441406 0 41.601562-33.839844 75.445312-75.4375 75.445312-41.601563 0-75.445313-33.84375-75.445313-75.445312zm245.542969 390.8125c0 1.210937-.988281 2.199218-2.195313 2.199218h-37.390624c-4.238282 0-8.203126 2.105469-10.578126 5.613282l-28.8125 42.585937c-.414062.613281-1 .9375-1.742187.960938-.753906.027343-1.351563-.257813-1.808594-.84375l-33.730469-43.386719c-2.414062-3.109375-6.136718-4.929688-10.082031-4.929688h-272.679687c-1.207032 0-2.191406-.988281-2.191406-2.199218v-241.941406c0-1.210938.980468-2.195313 2.191406-2.195313h396.824218c1.207032 0 2.195313.984375 2.195313 2.195313zm0 0"/><path d="m538.875 288.027344h-241.191406c-7.050782 0-12.773438 5.71875-12.773438 12.773437 0 7.054688 5.722656 12.773438 12.773438 12.773438h241.191406c7.050781 0 12.773438-5.71875 12.773438-12.773438 0-7.054687-5.71875-12.773437-12.773438-12.773437zm0 0"/><path d="m538.875 357.007812h-241.191406c-7.050782 0-12.773438 5.71875-12.773438 12.773438 0 7.050781 5.722656 12.773438 12.773438 12.773438h241.191406c7.050781 0 12.773438-5.722657 12.773438-12.773438 0-7.054688-5.71875-12.773438-12.773438-12.773438zm0 0"/><path d="m538.875 425.980469h-241.191406c-7.050782 0-12.773438 5.71875-12.773438 12.773437 0 7.058594 5.722656 12.773438 12.773438 12.773438h241.191406c7.050781 0 12.773438-5.714844 12.773438-12.773438 0-7.054687-5.71875-12.773437-12.773438-12.773437zm0 0"/><path d="m105.574219 110.875c6.832031 0 12.664062-5.722656 12.75-12.558594.09375-7.085937-5.710938-12.941406-12.78125-12.945312-7.046875-.007813-12.882813 5.988281-12.730469 13.03125.140625 6.777344 5.992188 12.472656 12.761719 12.472656zm0 0"/></svg>